<svg xmlns="http://www.w3.org/2000/svg" viewBox="0 0 163 29.8"><path d="M17.9 15.9l-1.6-.5c-.3-.1-.5-.2-.4-.3 0-.1.3-.2.7-.2h6.9c.4 0 .6.1.6.2s-.1.2-.3.3l-1.4.5c-.6.2-.9.6-.9 1.2 0 1.8.1 3.6.3 5.5-2.7 1.6-5.7 2.3-9 2.3-2.3 0-4.4-.4-6.2-1.3C3 21.8 1 18.6.5 14.2c0-.5-.1-1-.1-1.5C.4 9.1 1.6 6.2 4 4.2 6.7 1.9 10.1.7 14 .7c2.3 0 4.7.4 7.3 1.2l-.5 5.6c0 .3-.1.5-.3.4-.1 0-.2-.2-.3-.5l-.6-2.8c-.1-.4-.2-.7-.3-.9-.1-.2-.5-.4-.9-.6-1.2-.5-2.6-.8-4.3-.8-2.6 0-4.9.6-6.8 1.9-2.7 1.8-4.1 4.7-4 8.7 0 1.8.4 3.5 1 4.9.8 1.9 2 3.2 3.5 4.1 1.8 1 3.5 1.4 5.2 1.4 1.5 0 3-.4 4.6-1.1.9-.5 1.4-1.1 1.4-2 .1-1.8-.1-3.1-.3-3.8-.2-.2-.4-.3-.8-.5m8.9-11.1c.1 2 .1 4.7.1 8.1 0 3.4 0 6-.1 8.1 0 .9 0 1.4-.1 1.6-.1.4-.2.6-.5.7l-1.8.5c-.3 0-.4.1-.4.2s.2.2.6.2h13.7l.2-4.9c0-.1-.1-.2-.2-.2s-.3.1-.3.4l-1 2.3c-.1.3-.3.5-.5.5-.2.1-.5.1-1.1.1h-5.3c-.5 0-.7-.3-.7-.8-.1-2.6-.1-5.5-.1-8.8 0-3.4 0-6.1.1-8.1 0-.9 0-1.4.1-1.5.1-.4.3-.6.6-.7l1.8-.5c.4-.1.5-.2.5-.3 0-.1-.2-.2-.6-.2h-7.2c-.4 0-.6.1-.6.2s.2.2.5.3l1.8.5c.3.1.5.3.5.7v1.6m28.4 14.5c0-.1-.1-.2-.2-.2s-.3.1-.4.4c-.5 1.3-.7 2-.9 2.3-.1.3-.3.5-.5.5-.2.1-.6.1-1.1.1h-6.8c-.5 0-.7-.3-.7-.8l-.1-8.4h6.1c.6 0 .9.2 1.1.7.2.8.4 1.5.6 2.1.1.3.2.4.3.4.1 0 .2-.3.2-.7V9.8c0-.1-.1-.2-.2-.2s-.2.1-.3.2c-.1.5-.3.8-.4 1.1-.2.4-.3.6-.5.6-.1.1-.4.1-.8.1h-6.1l.1-7.9c0-.4 0-.6.1-.7h5c1.6 0 2.6.1 2.8.3.3.2.6 1 1.2 2.4.1.3.2.5.3.5.1 0 .2-.2.2-.6V1.2c-1.5.1-3.4.2-5.5.3-2.3 0-5.3.1-8.9.1-.4 0-.6.1-.6.2s.2.2.5.3l1.8.5c.3.1.5.3.5.7 0 .1.1.6.1 1.5.1 2.1.1 4.8.1 8.1 0 3.2 0 5.9-.1 8.1 0 .9 0 1.4-.1 1.6-.1.4-.2.6-.5.7l-1.8.5c-.4.1-.5.2-.5.3 0 .1.2.2.6.2H55l.2-5zm24.3 5.3c-.1-1.7-.2-2.9-.2-3.7-.1-2.1-.1-4.8-.1-8.1 0-3.2 0-5.9.1-8.1 0-.9 0-1.4.1-1.5.1-.4.2-.6.5-.7l1.8-.5c.3-.1.5-.2.5-.3 0-.1-.2-.2-.6-.2h-6.4c-.4 0-.6.1-.6.2s.2.2.5.3l1.8.5c.3.1.5.3.6.7 0 .1.1.6.1 1.5.1 2.2.1 4.9.1 8.1 0 3.3 0 5.7-.1 7.2L64.7 6.4c-2.4-2.7-4-4.6-4.7-5.5h-1.6c.1 1.8.2 3.1.2 3.9.1 2.2.1 4.9.1 8.1 0 3.3 0 6-.1 8.1 0 .9 0 1.4-.1 1.5-.1.4-.2.6-.5.7l-1.8.5c-.4.1-.5.2-.5.3 0 .1.2.2.6.2h6.4c.4 0 .6-.1.6-.2s-.2-.2-.5-.3l-1.8-.5c-.3-.1-.5-.3-.5-.7 0-.2-.1-.7-.1-1.5-.1-2.1-.1-4.8-.1-8.1 0-3.2 0-5.6.1-7.4 5.7 6.1 10.1 10.8 13.2 14.1 2.1 2.4 3.5 4.1 4.3 5h1.6m6.5-2.1c2.3 1.7 5 2.5 8.2 2.5 2.3 0 4.8-.5 7.5-1.5l.9-5.6c0-.1 0-.2-.1-.2s-.3.2-.5.7c-.3.7-.4 1.1-.5 1.2-.4.9-.9 1.5-1.3 1.9-1.4 1.3-3.4 1.9-6.3 1.9-1 0-1.9-.1-2.6-.3-3.7-1-6.1-3.4-7.1-7.2 0-.9-.2-1.8-.2-2.9 0-3.2.9-5.7 2.6-7.6 2-2.1 4.7-3.1 8.2-3.1.9 0 1.8.1 2.6.3 1 .3 1.8.7 2.3 1.5.4.5.7 1.4 1 2.6.1.5.3.7.4.7.1 0 .2-.2.2-.5V1.7c-2-.6-4.1-.9-6.2-.9-3.1 0-5.7.7-7.9 2-1.9 1.2-3.4 2.7-4.5 4.5-.9 1.6-1.4 3.3-1.5 5.2-.2 4.1 1.4 7.5 4.8 10m26.7-19.6c-3.4.8-5.6 3-6.7 6.5-.3.9-.4 2-.4 3 0 3 1 5.6 2.9 7.6s4.3 3 7.3 3c.8 0 1.6-.1 2.3-.3 3.6-.9 5.9-3.1 6.9-6.6.3-.9.4-1.8.4-2.8 0-1.5-.2-2.9-.7-4.2-.5-1.5-1.3-2.7-2.3-3.6-2.1-2-4.5-3-7.3-3-.8.1-1.6.2-2.4.4m-3.3-.6c1.3-.6 2.9-1.1 4.7-1.4.7-.1 1.3-.1 2-.1 3.9 0 7 1.4 9.4 4.3 1.7 2.1 2.5 4.6 2.5 7.8 0 1.1-.1 2.2-.4 3.2-.5 2-1.6 3.8-3.2 5.2-1.5 1.4-3.3 2.4-5.3 3-1.6.5-3 .7-4.4.7-2.9 0-5.6-1-7.9-3-1.4-1.2-2.4-2.7-3.1-4.6-.6-1.6-.9-3.2-.9-4.8 0-.4 0-.9.1-1.3.5-4.1 2.7-7.1 6.5-9m24.1 10.5c1.5 0 2.7-.2 3.6-.7 1.7-.8 2.7-2.2 2.8-4.1.1-1.8-.6-3.2-2.3-4.2-.9-.5-1.9-.8-3.2-.8-.5 0-.9.1-1.3.2-.4.2-.6.4-.6.8v8.9c.4-.1.7-.1 1-.1M127 1.7c0-.1.2-.2.6-.2l6.4-.1c2 0 3.4.1 4.3.3 1.5.4 2.7 1.4 3.6 2.9.5.8.7 1.8.7 2.9 0 1.2-.3 2.3-.9 3.3-.9 1.5-2.7 2.6-5.1 3.2l6.9 7.8c1.4 1.4 4 3.8 6.1 4.8.2.1 1.9.8 3.1 1 1.1.2 4.3.3 4.1.4-2.8 1.7-7 .5-9-.4-1.4-.6-5.6-4.1-7.8-6.4l-6.6-6.9h-.8V21c0 .8 0 1.3.1 1.5.1.4.3.6.6.7l1.8.5c.4.1.5.2.5.3 0 .1-.2.2-.6.2h-7.2c-.4 0-.6-.1-.6-.2s.2-.2.5-.3l1.8-.5c.3-.1.5-.3.5-.7 0-.1.1-.7.1-1.5.1-2.1.1-4.8.1-8.1 0-3.2 0-5.9-.1-8.1 0-.9 0-1.4-.1-1.5-.1-.4-.2-.6-.5-.7l-1.8-.5c-.5-.1-.7-.2-.7-.4m35.5 17.6c0-.1-.1-.2-.2-.2s-.3.1-.4.4c-.5 1.3-.7 2-.9 2.3-.1.3-.3.5-.5.5-.2.1-.6.1-1.1.1h-6.8c-.5 0-.7-.3-.7-.8l-.1-8.4h6.1c.6 0 .9.2 1.1.7.2.8.4 1.5.6 2.1.1.3.2.4.3.4.1 0 .2-.3.2-.7V9.8c0-.1-.1-.2-.2-.2s-.2.1-.3.2c-.1.5-.3.8-.4 1.1-.2.4-.3.6-.5.6-.1.1-.4.1-.8.1h-6.1l.1-7.9c0-.4 0-.6.1-.7.1-.1.3-.1.6-.1h4.3c1.6 0 2.6.1 2.8.3.3.2.6 1 1.2 2.4.1.3.2.5.3.5.1 0 .2-.2.2-.6V1.2c-1.5.1-3.4.2-5.5.3-2.3 0-5.3.1-8.9.1-.4 0-.6.1-.6.2s.2.2.5.3l1.8.5c.3.1.5.3.5.7 0 .1.1.6.1 1.5.1 2.1.1 4.8.1 8.1 0 3.2 0 5.9-.1 8.1 0 .9 0 1.4-.1 1.6-.1.4-.2.6-.5.7l-1.8.5c-.4.1-.5.2-.5.3 0 .1.2.2.6.2h15.2l.3-5z" class="st0"/></svg>